<svg width="210" height="1064" viewBox="0 0 210 1064" fill="none" xmlns="http://www.w3.org/2000/svg">
<path opacity="0.4" d="M177.918 734.502C179.085 743.787 180.252 753.072 180.097 762.523C182.216 886.213 91.1392 994.666 -34.403 1010.44L-43.2366 940.142C26.8027 931.341 81.1033 882.75 101.355 819.574C109.093 795.697 111.212 769.831 107.879 743.303C107.379 739.324 106.879 735.345 106.379 731.365C101.891 706.33 90.9615 683.451 77.7228 663.557C64.484 643.663 46.2926 627.086 25.9583 614.82C-7.43625 594.764 -46.2716 584.823 -88.5595 590.137C-126.883 594.952 -163.242 583.353 -192.839 561.472C-194.327 560.312 -197.303 557.991 -198.791 556.831C-204.911 550.863 -211.03 544.895 -217.316 537.601C-233.198 518.039 -242.805 494.994 -246.139 468.466C-250.972 430 -239.448 393.521 -217.506 365.164C-203.648 347.255 -185.326 332.826 -163.694 323.371C-150.979 317.732 -138.097 313.418 -123.561 311.592C-112.989 310.263 -103.571 310.427 -94.1543 310.591L-102.571 318.386C-108.679 323.195 -109.988 334.139 -103.869 340.106C-100.726 343.754 -97.9164 344.748 -93.7853 345.576C-89.6541 346.404 -85.8563 344.58 -83.5466 341.595L-27.9246 292.838C-21.8171 288.028 -20.5075 277.085 -26.6269 271.117L-75.2602 215.25C-80.058 209.116 -90.9633 207.792 -96.9041 213.928C-103.012 218.737 -104.321 229.681 -98.2019 235.648L-93.5707 240.456C-107.119 239.464 -119.179 239.632 -133.716 241.458C-145.609 242.953 -158.657 245.94 -170.384 248.761C-211.672 262.033 -248.817 286.911 -274.056 321.071C-306.392 362.86 -323.512 418.905 -316.178 477.267C-311.178 517.059 -295.939 552.87 -272.283 580.887C-265.997 588.181 -259.711 595.475 -252.104 602.603C-247.473 607.411 -241.52 612.052 -235.567 616.693C-222.174 627.137 -209.113 634.927 -193.41 642.385C-159.194 658.296 -120.859 664.258 -79.8925 659.11C-40.2476 654.128 -3.05525 672.36 18.1243 702.035C27.8867 715.629 35.3394 732.208 37.6728 750.778C38.5062 757.41 39.3395 764.042 38.8514 770.84C35.7678 821.079 -2.02001 862.206 -53.5584 868.682C-109.061 875.656 -163.255 871.687 -214.65 857.935C-246.545 849.817 -276.296 837.387 -305.059 822.139C-325.227 811.199 -345.728 797.607 -363.586 783.683C-390.373 762.797 -415.017 737.599 -437.185 710.743C-482.021 653.051 -512.498 581.43 -522.332 503.172C-536.832 387.774 -503.747 277.176 -438.088 190.78C-370.942 105.544 -272.377 46.001 -157.407 31.5542L-148.573 101.854C-245.043 113.976 -327.428 163.401 -381.538 234.873C-436.97 306.511 -464.293 398.87 -452.292 494.371C-443.959 560.691 -417.791 619.381 -379.575 667.125C-362.038 689.174 -342.025 709.564 -318.215 728.13C-315.238 730.451 -310.774 733.932 -307.797 736.252C-285.808 751.005 -263.986 764.431 -238.532 774.706C-214.4 785.147 -189.28 792.769 -163.338 796.246C-134.42 802.044 -104.847 802.37 -74.2855 799.877L-82.3693 810.324C-88.1434 817.786 -86.9767 827.071 -79.5359 832.873C-76.5595 835.194 -72.2617 837.348 -68.2972 836.85C-64.3327 836.352 -60.5349 834.528 -58.2252 831.543L-9.55586 770.186C-7.2462 767.201 -6.42473 763.055 -6.92475 759.076C-7.42476 755.097 -9.24627 751.284 -12.2226 748.963L-73.4042 700.062C-79.5236 694.095 -90.0956 695.423 -95.8697 702.885C-101.644 710.348 -100.477 719.632 -93.0363 725.434L-84.1072 732.396C-110.704 734.391 -137.801 732.407 -162.587 727.437C-186.053 722.302 -208.53 714.347 -228.531 704.734C-245.723 696.116 -261.759 686.005 -275.319 674.235C-279.784 670.754 -282.927 667.107 -287.225 664.952C-300.785 653.183 -313.19 639.921 -324.274 626.493C-354.716 587.203 -375.419 539.952 -381.92 488.223C-391.587 411.291 -368.704 337.006 -324.821 280.293C-280.938 223.579 -214.898 182.945 -138.251 173.313C-107.857 169.494 -76.7958 170.981 -47.8777 176.778C-43.7465 177.607 -39.6154 178.435 -36.8057 179.429C2.1963 190.696 33.2931 224.515 38.7932 268.286C40.1266 278.897 39.9718 288.348 38.4955 297.965C34.8881 322.671 21.6969 345.886 2.21967 361.807C-12.3049 374.411 -31.2941 383.533 -52.438 386.19C-64.3315 387.685 -75.2368 386.36 -86.1422 385.036C-87.6303 383.876 -88.9518 384.042 -91.5948 384.374C-98.5356 382.551 -105.143 383.382 -113.072 384.378C-132.895 386.869 -149.074 396.986 -159.467 410.418C-171.016 425.343 -175.456 443.416 -173.123 461.986C-171.456 475.25 -165.992 486.689 -158.051 496.47C-154.741 501.444 -150.277 504.925 -145.812 508.406C-130.931 520.01 -112.918 524.483 -94.4167 522.158C-65.3438 518.505 -35.6042 520.157 -8.00754 526.121C-1.06671 527.944 5.87415 529.766 11.4935 531.755C33.9708 539.709 55.46 550.482 74.4729 562.914C93.6524 576.672 111.844 593.249 126.237 611.651C135.833 623.918 145.595 637.513 152.715 651.439C156.524 660.392 161.489 667.852 163.977 676.971C170.275 695.042 175.418 714.606 177.918 734.502Z" stroke="#373749"/>
</svg>
